<svg width="20" height="21" viewBox="0 0 20 21" fill="none" xmlns="http://www.w3.org/2000/svg">
<g filter="url(#filter0_d_5_36)">
<path d="M13.2309 3.09802C13.2311 3.09799 13.2312 3.09795 13.2314 3.09792L13.2306 3.09807L13.2309 3.09802ZM13.3288 4.44662V5.79577H14.2203H15.2119H15.3119V5.89577V10.5737V15.1517H15.6059H16H16.1V15.2517V15.6331V16.0144V16.1144H16H10H4H3.9V16.0144V15.6331V15.2517V15.1517H4H4.39407H4.68827L4.69322 11.3312L4.69322 11.3312L4.70085 7.40829L4.70104 7.30926L4.80007 7.30849L5.78397 7.30086L5.78423 7.30086L6.67119 7.29629V6.10171V4.80764V4.7316L6.74446 4.71128L7.3489 4.54366C7.34901 4.54363 7.34912 4.5436 7.34923 4.54357C7.68059 4.44926 9.12435 4.04257 10.5578 3.64101C11.2747 3.43889 11.9281 3.25521 12.4038 3.12174C12.6417 3.055 12.8352 3.0008 12.97 2.96313L13.1266 2.91949L13.1321 2.91796C13.1567 2.91113 13.1771 2.90547 13.1868 2.90304L13.1868 2.903C13.2224 2.89408 13.253 2.90628 13.2715 2.92022C13.2871 2.93201 13.2953 2.94538 13.2984 2.95096C13.3051 2.96266 13.3079 2.97316 13.3086 2.97601L13.3086 2.97608C13.3107 2.98391 13.3117 2.99109 13.3121 2.99443C13.3131 3.0026 13.3139 3.01251 13.3145 3.02253C13.3158 3.04331 13.317 3.07296 13.318 3.10978C13.3202 3.18378 13.3221 3.29052 13.3237 3.42179C13.3269 3.6845 13.3288 4.04721 13.3288 4.44662ZM12.3466 4.14392C12.3226 4.15046 12.295 4.15801 12.2642 4.16649C12.141 4.20032 11.9659 4.2488 11.7552 4.30736C11.3338 4.42449 10.7703 4.58186 10.1954 4.74281C9.04504 5.0649 7.85119 5.40083 7.6589 5.45776L7.65831 5.45793L7.6339 5.465V6.39154V7.29578H8.52542H9.51695H9.61695V7.39577V11.3237V15.1517H10.9915H12.3661V9.63306C12.3661 7.39319 12.3642 5.98881 12.3594 5.14475C12.357 4.7226 12.354 4.4412 12.35 4.26568C12.3489 4.21682 12.3478 4.17653 12.3466 4.14392ZM5.7021 8.26918C5.68849 8.26953 5.67597 8.26989 5.66454 8.27025C5.66352 8.31694 5.66252 8.38126 5.66157 8.4617C5.65943 8.64246 5.65752 8.90317 5.65593 9.22455C5.65275 9.86724 5.65085 10.7518 5.65085 11.7229V15.1517H7.15254H8.65424V11.7051V8.25849H7.17034C6.73456 8.25849 6.33643 8.26039 6.04643 8.26357C5.90136 8.26515 5.78373 8.26705 5.7021 8.26918ZM13.839 15.1517H14.3492V10.9551V6.75849H13.839H13.3288V10.9551V15.1517H13.839Z" fill="#FFBB00" stroke="#FFBB00" stroke-width="0.2"/>
<path d="M10.4849 8.21022L10.3828 8.21229V8.11024V7.33228V6.55431V6.45226L10.4849 6.45433L10.8611 6.46196L10.8612 6.46196L11.2349 6.46959L11.3328 6.47159V6.56957V7.33228V8.09499V8.19297L11.2349 8.19497L10.8612 8.2026L10.8611 8.2026L10.4849 8.21022Z" fill="#FFBB00" stroke="#FFBB00" stroke-width="0.2"/>
<path d="M10.4849 11.0068L10.3828 11.0089V10.9068V10.1416V9.37886V9.27886H10.4828H10.8642H11.2456H11.3462L11.3456 9.37954L11.3405 10.1346L11.3405 10.135L11.3328 10.8926L11.3319 10.9896L11.2349 10.9916L10.8612 10.9992L10.8611 10.9992L10.4849 11.0068Z" fill="#FFBB00" stroke="#FFBB00" stroke-width="0.2"/>
<path d="M10.4828 13.8008H10.3828V13.7008V12.9381V12.1754V12.0754H10.4828H10.8642H11.2456H11.3456V12.1754V12.9381V13.7008V13.8008H11.2456H10.8642H10.4828Z" fill="#FFBB00" stroke="#FFBB00" stroke-width="0.2"/>
<path d="M6.77118 11.0042H6.67118V10.9042V10.1415V9.37877V9.27877H6.77118H7.15254H7.53389H7.63389V9.37877V10.1415V10.9042V11.0042H7.53389H7.15254H6.77118Z" fill="#FFBB00" stroke="#FFBB00" stroke-width="0.2"/>
<path d="M6.77118 13.8008H6.67118V13.7008V12.9381V12.1754V12.0754H6.77118H7.15254H7.53389H7.63389V12.1754V12.9381V13.7008V13.8008H7.53389H7.15254H6.77118Z" fill="#FFBB00" stroke="#FFBB00" stroke-width="0.2"/>
</g>
<defs>
<filter id="filter0_d_5_36" x="0.799988" y="0.799911" width="18.4" height="19.4145" filterUnits="userSpaceOnUse" color-interpolation-filters="sRGB">
<feFlood flood-opacity="0" result="BackgroundImageFix"/>
<feColorMatrix in="SourceAlpha" type="matrix" values="0 0 0 0 0 0 0 0 0 0 0 0 0 0 0 0 0 0 127 0" result="hardAlpha"/>
<feOffset dy="1"/>
<feGaussianBlur stdDeviation="1.5"/>
<feComposite in2="hardAlpha" operator="out"/>
<feColorMatrix type="matrix" values="0 0 0 0 1 0 0 0 0 0.815755 0 0 0 0 0.309082 0 0 0 0.6 0"/>
<feBlend mode="normal" in2="BackgroundImageFix" result="effect1_dropShadow_5_36"/>
<feBlend mode="normal" in="SourceGraphic" in2="effect1_dropShadow_5_36" result="shape"/>
</filter>
</defs>
</svg>
