<svg width="19" height="19" viewBox="0 0 19 19" fill="none" xmlns="http://www.w3.org/2000/svg">
<g filter="url(#filter0_d_5_28)">
<path d="M15.8333 9.875C15.8333 8.965 15.2325 8.20083 14.4042 7.93833C14.5675 7.64667 14.6667 7.31417 14.6667 6.95833C14.6667 6.04833 14.0658 5.28417 13.2375 5.02167C13.4008 4.73 13.5 4.3975 13.5 4.04167C13.5 2.91583 12.5842 2 11.4583 2H7.375C6.24917 2 5.33333 2.91583 5.33333 4.04167C5.33333 4.3975 5.4325 4.73 5.59583 5.02167C4.77333 5.28417 4.16667 6.04833 4.16667 6.95833C4.16667 7.31417 4.26583 7.64667 4.42917 7.93833C3.60667 8.20083 3 8.965 3 9.875C3 10.61 3.39083 11.24 3.97417 11.6017C3.72917 11.9342 3.58333 12.3483 3.58333 12.7917C3.58333 13.9175 4.49917 14.8333 5.625 14.8333H13.2083C14.3342 14.8333 15.25 13.9175 15.25 12.7917C15.25 12.3483 15.1042 11.9342 14.8592 11.6017C15.4425 11.24 15.8333 10.61 15.8333 9.875ZM7.375 3.16667H11.4583C11.9425 3.16667 12.3333 3.5575 12.3333 4.04167C12.3333 4.52583 11.9425 4.91667 11.4583 4.91667H7.375C6.89083 4.91667 6.5 4.52583 6.5 4.04167C6.5 3.5575 6.89083 3.16667 7.375 3.16667ZM6.20833 6.08333H12.625C13.1092 6.08333 13.5 6.47417 13.5 6.95833C13.5 7.4425 13.1092 7.83333 12.625 7.83333H6.20833C5.72417 7.83333 5.33333 7.4425 5.33333 6.95833C5.33333 6.47417 5.72417 6.08333 6.20833 6.08333ZM4.75 12.7917C4.75 12.3075 5.14083 11.9167 5.625 11.9167H7.66667V13.6667H5.625C5.14083 13.6667 4.75 13.2758 4.75 12.7917ZM13.2083 13.6667H11.1667V11.9167H13.2083C13.6925 11.9167 14.0833 12.3075 14.0833 12.7917C14.0833 13.2758 13.6925 13.6667 13.2083 13.6667ZM13.7917 10.75H11.0617C10.8167 10.0733 10.175 9.58333 9.41667 9.58333C8.65833 9.58333 8.01667 10.0733 7.77167 10.75H5.04167C4.5575 10.75 4.16667 10.3592 4.16667 9.875C4.16667 9.39083 4.5575 9 5.04167 9H13.7917C14.2758 9 14.6667 9.39083 14.6667 9.875C14.6667 10.3592 14.2758 10.75 13.7917 10.75Z" fill="#FFBB00"/>
</g>
<defs>
<filter id="filter0_d_5_28" x="0" y="0" width="18.8334" height="18.8333" filterUnits="userSpaceOnUse" color-interpolation-filters="sRGB">
<feFlood flood-opacity="0" result="BackgroundImageFix"/>
<feColorMatrix in="SourceAlpha" type="matrix" values="0 0 0 0 0 0 0 0 0 0 0 0 0 0 0 0 0 0 127 0" result="hardAlpha"/>
<feOffset dy="1"/>
<feGaussianBlur stdDeviation="1.5"/>
<feComposite in2="hardAlpha" operator="out"/>
<feColorMatrix type="matrix" values="0 0 0 0 1 0 0 0 0 0.815755 0 0 0 0 0.309082 0 0 0 0.6 0"/>
<feBlend mode="normal" in2="BackgroundImageFix" result="effect1_dropShadow_5_28"/>
<feBlend mode="normal" in="SourceGraphic" in2="effect1_dropShadow_5_28" result="shape"/>
</filter>
</defs>
</svg>
