<svg width="16" height="19" viewBox="0 0 16 19" fill="none" xmlns="http://www.w3.org/2000/svg">
<g filter="url(#filter0_d_5_46)">
<path d="M8 8.25895L6.9375 9.07876C6.875 9.13132 6.8125 9.13405 6.75 9.08696C6.6875 9.03988 6.66667 8.97934 6.6875 8.90534L7.09375 7.58103L6 6.69816C5.94792 6.6456 5.93229 6.58527 5.95313 6.51717C5.97396 6.44906 6.02083 6.41479 6.09375 6.41437H7.4375L7.84375 5.12159C7.86458 5.04802 7.91667 5.01123 8 5.01123C8.08333 5.01123 8.13542 5.04802 8.15625 5.12159L8.5625 6.41437H9.89062C9.96354 6.41437 10.0131 6.44864 10.0394 6.51717C10.0656 6.58569 10.0525 6.64602 10 6.69816L8.89063 7.58103L9.29687 8.90534C9.31771 8.97892 9.29688 9.03946 9.23438 9.08696C9.17188 9.13447 9.10938 9.13174 9.04688 9.07876L8 8.25895ZM8 13.9819L5.07812 14.9593C4.86979 15.0329 4.67958 15.0066 4.5075 14.8805C4.33542 14.7544 4.24958 14.5862 4.25 14.376V10.3715C3.85417 9.93011 3.54688 9.42561 3.32813 8.85805C3.10938 8.29048 3 7.68613 3 7.045C3 5.6366 3.48437 4.44367 4.45312 3.4662C5.42187 2.48873 6.60417 2 8 2C9.39583 2 10.5781 2.48873 11.5469 3.4662C12.5156 4.44367 13 5.6366 13 7.045C13 7.68613 12.8906 8.29048 12.6719 8.85805C12.4531 9.42561 12.1458 9.93011 11.75 10.3715V14.376C11.75 14.5862 11.664 14.7544 11.4919 14.8805C11.3198 15.0066 11.1298 15.0329 10.9219 14.9593L8 13.9819ZM8 10.8287C9.04167 10.8287 9.92708 10.4609 10.6562 9.72515C11.3854 8.98943 11.75 8.09604 11.75 7.045C11.75 5.99396 11.3854 5.10057 10.6562 4.36484C9.92708 3.62911 9.04167 3.26125 8 3.26125C6.95833 3.26125 6.07292 3.62911 5.34375 4.36484C4.61458 5.10057 4.25 5.99396 4.25 7.045C4.25 8.09604 4.61458 8.98943 5.34375 9.72515C6.07292 10.4609 6.95833 10.8287 8 10.8287ZM5.5 13.367L8 12.7206L10.5 13.367V11.4121C10.1354 11.6223 9.74208 11.7879 9.32 11.909C8.89792 12.0301 8.45792 12.0904 8 12.09C7.54167 12.09 7.10146 12.0295 6.67938 11.9084C6.25729 11.7873 5.86417 11.6221 5.5 11.4127V13.367Z" fill="#FFBB00"/>
</g>
<defs>
<filter id="filter0_d_5_46" x="0" y="0" width="16" height="19" filterUnits="userSpaceOnUse" color-interpolation-filters="sRGB">
<feFlood flood-opacity="0" result="BackgroundImageFix"/>
<feColorMatrix in="SourceAlpha" type="matrix" values="0 0 0 0 0 0 0 0 0 0 0 0 0 0 0 0 0 0 127 0" result="hardAlpha"/>
<feOffset dy="1"/>
<feGaussianBlur stdDeviation="1.5"/>
<feComposite in2="hardAlpha" operator="out"/>
<feColorMatrix type="matrix" values="0 0 0 0 1 0 0 0 0 0.815755 0 0 0 0 0.309082 0 0 0 0.6 0"/>
<feBlend mode="normal" in2="BackgroundImageFix" result="effect1_dropShadow_5_46"/>
<feBlend mode="normal" in="SourceGraphic" in2="effect1_dropShadow_5_46" result="shape"/>
</filter>
</defs>
</svg>
